HIERARCHY
ROOT Hips
{
	OFFSET -61.335590 92.211578 314.097412
	CHANNELS 6 Xposition Yposition Zposition Zrotation Yrotation Xrotation 
	JOINT LeftUpLeg
	{
		OFFSET 0.103454 1.857841 10.548502
		CHANNELS 3 Zrotation Yrotation Xrotation
		JOINT LeftLeg
		{
			OFFSET 43.500000 -0.000034 -0.000004
			CHANNELS 3 Zrotation Yrotation Xrotation
			JOINT LeftFoot
			{
				OFFSET 42.372192 0.000027 -0.000002
				CHANNELS 3 Zrotation Yrotation Xrotation
				JOINT LeftToe
				{
					OFFSET 17.300003 0.000001 0.000001
					CHANNELS 3 Zrotation Yrotation Xrotation
					End Site
					{
						OFFSET 0.000000 0.000000 0.000000
					}
				}
			}
		}
	}
	JOINT RightUpLeg
	{
		OFFSET 0.103461 1.857837 -10.548502
		CHANNELS 3 Zrotation Yrotation Xrotation
		JOINT RightLeg
		{
			OFFSET 43.500046 -0.000034 0.000013
			CHANNELS 3 Zrotation Yrotation Xrotation
			JOINT RightFoot
			{
				OFFSET 42.372261 0.000004 0.000013
				CHANNELS 3 Zrotation Yrotation Xrotation
				JOINT RightToe
				{
					OFFSET 17.299986 -0.000008 0.000013
					CHANNELS 3 Zrotation Yrotation Xrotation
					End Site
					{
						OFFSET 0.000000 0.000000 0.000000
					}
				}
			}
		}
	}
	JOINT Spine
	{
		OFFSET 6.901964 -2.603740 0.000003
		CHANNELS 3 Zrotation Yrotation Xrotation
		JOINT Spine1
		{
			OFFSET 12.588108 0.000020 -0.000003
			CHANNELS 3 Zrotation Yrotation Xrotation
			JOINT Spine2
			{
				OFFSET 12.343194 -0.000020 0.000000
				CHANNELS 3 Zrotation Yrotation Xrotation
				JOINT Neck
				{
					OFFSET 25.832893 -0.000004 0.000001
					CHANNELS 3 Zrotation Yrotation Xrotation
					JOINT Head
					{
						OFFSET 11.766617 0.000023 0.000000
						CHANNELS 3 Zrotation Yrotation Xrotation
						End Site
						{
							OFFSET 0.000000 0.000000 0.000000
						}
					}
				}
				JOINT LeftShoulder
				{
					OFFSET 19.745911 -1.480362 6.000106
					CHANNELS 3 Zrotation Yrotation Xrotation
					JOINT LeftArm
					{
						OFFSET 11.284124 -0.000010 -0.000029
						CHANNELS 3 Zrotation Yrotation Xrotation
						JOINT LeftForeArm
						{
							OFFSET 33.000050 0.000006 0.000043
							CHANNELS 3 Zrotation Yrotation Xrotation
							JOINT LeftHand
							{
								OFFSET 25.200006 0.000015 0.000002
								CHANNELS 3 Zrotation Yrotation Xrotation
								End Site
								{
									OFFSET 0.000000 0.000000 0.000000
								}
							}
						}
					}
				}
				JOINT RightShoulder
				{
					OFFSET 19.746103 -1.480366 -6.000076
					CHANNELS 3 Zrotation Yrotation Xrotation
					JOINT RightArm
					{
						OFFSET 11.284135 -0.000031 -0.000006
						CHANNELS 3 Zrotation Yrotation Xrotation
						JOINT RightForeArm
						{
							OFFSET 33.000095 0.000024 0.000006
							CHANNELS 3 Zrotation Yrotation Xrotation
							JOINT RightHand
							{
								OFFSET 25.199774 0.000153 0.000421
								CHANNELS 3 Zrotation Yrotation Xrotation
								End Site
								{
									OFFSET 0.000000 0.000000 0.000000
								}
							}
						}
					}
				}
			}
		}
	}
}
MOTION
Frames: 14
Frame Time: 0.033333
-61.335590 92.211578 314.097412 90.768631 4.409442 93.228442 -176.600606 -2.251093 -177.790917 -10.867246 -2.002698 -5.731357 74.688966 3.157990 -3.477685 21.454551 0.003094 0.000001 -175.590435 2.141499 -178.988591 -11.831437 2.720380 11.368471 78.835976 -6.946100 4.813867 21.454558 -0.003105 -0.000017 6.624081 -0.168435 0.098018 3.245208 -0.314958 0.175380 2.927097 -0.313763 0.182954 9.751796 -2.735208 -4.624591 -22.551659 4.940044 -7.200945 -39.927049 -87.768225 -142.013443 1.283163 7.631952 -7.569597 -21.758672 -16.104801 1.176532 6.556177 -0.265809 14.392850 -95.725354 83.369453 86.542247 -1.882861 -6.865429 5.642631 -19.942472 16.303330 -1.183636 6.697119 5.027556 -10.439842 
-61.355709 92.211594 314.101196 90.768617 4.409444 93.235354 -176.600620 -2.268601 -177.786737 -10.867256 -2.002701 -5.731353 74.688972 3.153312 -3.487456 21.454551 0.003103 -0.000001 -175.585995 2.123000 -178.988591 -11.826497 2.720380 11.373644 78.835983 -6.952473 4.802043 21.454558 -0.003109 -0.000019 6.624091 -0.168433 0.098022 3.245199 -0.314944 0.175374 2.927094 -0.313767 0.182947 9.744221 -2.745810 -4.624585 -22.562577 4.948822 -7.208422 -40.169135 -87.773402 -141.771354 1.288128 7.624688 -7.599531 -21.775160 -16.115691 1.176537 6.537767 -0.251976 14.363236 -95.703088 83.383188 86.563482 -1.887872 -6.861161 5.697612 -19.956759 16.295933 -1.183633 6.705689 5.008795 -10.485805 
-61.390129 92.211739 314.107605 90.768624 4.409441 93.248318 -176.600620 -2.298206 -177.778076 -10.867254 -2.002700 -5.731344 74.688966 3.145313 -3.504739 21.454553 0.003099 0.000000 -175.578141 2.091700 -178.988604 -11.816133 2.720382 11.381992 78.835997 -6.963212 4.781077 21.454557 -0.003104 -0.000017 6.624079 -0.168435 0.098025 3.245199 -0.314948 0.175377 2.927106 -0.313767 0.182957 9.729112 -2.776428 -4.628523 -22.580617 4.970064 -7.225598 -40.575231 -87.783005 -141.365026 1.297677 7.617034 -7.651076 -21.801532 -16.133592 1.176522 6.512914 -0.232812 14.313432 -95.595574 83.394875 86.670729 -1.903968 -6.855035 5.730803 -19.984181 16.285889 -1.183639 6.734736 4.973736 -10.517162 
-61.423908 92.211983 314.115204 90.768617 4.409446 93.258775 -176.597847 -2.325501 -177.771478 -10.867237 -2.002689 -5.731347 74.688959 3.137027 -3.523538 21.454557 0.003092 0.000001 -175.568346 2.062703 -178.988618 -11.804338 2.720384 11.389320 78.835990 -6.973590 4.758691 21.454557 -0.003112 -0.000018 6.624087 -0.168425 0.098026 3.245198 -0.314955 0.175380 2.927103 -0.313756 0.182947 9.716810 -2.816748 -4.638056 -22.603229 5.004468 -7.255357 -40.780358 -87.791051 -141.159779 1.301820 7.614336 -7.703554 -21.821514 -16.151871 1.176528 6.501286 -0.220612 14.268383 -95.496092 83.388441 86.771317 -1.929639 -6.847964 5.716956 -19.997450 16.280591 -1.183631 6.744907 4.929606 -10.510012 
-61.455070 92.212280 314.124207 90.766193 4.409446 93.265236 -176.589896 -2.347796 -177.767776 -10.861456 -1.998007 -5.731345 74.688959 3.129180 -3.543269 21.454550 0.003081 -0.000001 -175.556298 2.038796 -178.988604 -11.792143 2.720381 11.395155 78.835983 -6.983208 4.735304 21.454558 -0.003118 -0.000021 6.624081 -0.168426 0.098019 3.245207 -0.319126 0.175382 2.927093 -0.317935 0.182953 9.705969 -2.859911 -4.650618 -22.624173 5.047897 -7.292251 -41.116550 -87.788749 -140.824403 1.286614 7.615937 -7.751632 -21.832548 -16.170797 1.176534 6.506435 -0.211930 14.227832 -95.422736 83.379459 86.845828 -1.951253 -6.837810 5.689405 -19.992271 16.276621 -1.183636 6.716599 4.894645 -10.486265 
-61.484402 92.212540 314.134094 90.764178 4.409444 93.271602 -176.578381 -2.367006 -177.762913 -10.853411 -1.991529 -5.731347 74.688959 3.122020 -3.563030 21.454551 0.003087 -0.000001 -175.541818 2.018594 -178.984206 -11.780146 2.725677 11.399838 78.835983 -6.992149 4.711719 21.454557 -0.003105 -0.000016 6.624083 -0.168428 0.098022 3.245201 -0.324234 0.175377 2.927097 -0.323032 0.182949 9.698917 -2.891499 -4.663022 -22.642608 5.085935 -7.325464 -41.420231 -87.777623 -140.522003 1.267441 7.623877 -7.790284 -21.839933 -16.190533 1.176530 6.521129 -0.205729 14.188349 -95.402457 83.380818 86.865991 -1.964619 -6.822083 5.654107 -19.979350 16.273757 -1.183631 6.700409 4.889563 -10.454154 
-61.511841 92.212677 314.144714 90.762989 4.413919 93.278507 -176.564379 -2.383812 -177.757326 -10.844310 -1.984487 -5.730633 74.688966 3.115276 -3.581979 21.454551 0.003093 0.000000 -175.525808 2.001294 -178.978373 -11.769574 2.732533 11.403709 78.835990 -7.000415 4.688737 21.454560 -0.003109 -0.000019 6.624088 -0.168433 0.098025 3.245199 -0.331352 0.177721 2.927098 -0.330151 0.182949 9.706598 -2.891755 -4.673945 -22.669072 5.099391 -7.344110 -41.426969 -87.764188 -140.516608 1.250546 7.635242 -7.819661 -21.844781 -16.210151 1.176528 6.539120 -0.205551 14.151486 -95.478067 83.386276 86.789424 -1.967435 -6.798581 5.614914 -19.964071 16.272188 -1.183639 6.694858 4.939986 -10.407356 
-61.537510 92.212578 314.155792 90.762095 4.420016 93.284217 -176.548669 -2.400208 -177.753064 -10.836076 -1.978590 -5.730063 74.688604 3.108985 -3.599353 21.454551 0.003081 -0.000000 -175.509128 1.985203 -178.973537 -11.761294 2.739704 11.406915 78.835976 -7.008149 4.667076 21.454557 -0.003103 -0.000018 6.624074 -0.168435 0.098025 3.245201 -0.339402 0.180776 2.927101 -0.338166 0.182956 9.735553 -2.872939 -4.685035 -22.708079 5.097595 -7.355113 -41.177025 -87.755193 -140.766797 1.237522 7.644918 -7.839324 -21.847581 -16.229132 1.176528 6.558504 -0.212751 14.119358 -95.593367 83.398830 86.672580 -1.954726 -6.773521 5.576782 -19.950781 16.273426 -1.183622 6.694088 5.037207 -10.410399 
-61.560841 92.212181 314.166992 90.761439 4.427610 93.289025 -176.531976 -2.415996 -177.749649 -10.829366 -1.974487 -5.729542 74.688078 3.103326 -3.614528 21.454551 0.003085 0.000001 -175.492777 1.970709 -178.969248 -11.756826 2.746953 11.410237 78.835990 -7.015094 4.647405 21.454557 -0.003122 -0.000017 6.624087 -0.172623 0.098019 3.245199 -0.347818 0.184060 2.927098 -0.346579 0.182782 9.771915 -2.845873 -4.695064 -22.749642 5.088996 -7.361439 -40.871937 -87.748226 -141.071861 1.224041 7.650702 -7.852733 -21.850655 -16.246921 1.176530 6.575301 -0.239413 14.113446 -95.717704 83.414833 86.546188 -1.932113 -6.751563 5.551419 -19.937081 16.284984 -1.183641 6.695565 4.994490 -10.356834 
-61.581268 92.211517 314.177887 90.760968 4.436328 93.293431 -176.514942 -2.430691 -177.746862 -10.824298 -1.974019 -5.728996 74.687647 3.098576 -3.626814 21.454551 0.003091 -0.000001 -175.477477 1.958699 -178.968155 -11.756559 2.754996 11.414494 78.840826 -7.022341 4.630417 21.454557 -0.003104 -0.000018 6.624083 -0.177137 0.098018 3.245202 -0.356061 0.186696 2.927100 -0.354793 0.182592 9.808636 -2.815080 -4.703465 -22.788262 5.077022 -7.364108 -40.549197 -87.743103 -141.394751 1.211924 7.652986 -7.861769 -21.856641 -16.263351 1.176522 6.587875 -0.269327 14.107825 -95.858413 83.431082 86.403341 -1.904913 -6.732283 5.543714 -19.927652 16.300871 -1.183633 6.698395 4.912425 -10.306433 
-61.598461 92.210602 314.188293 90.760640 4.445996 93.298192 -176.498345 -2.444502 -177.743720 -10.821783 -1.975262 -5.728338 74.687524 3.095006 -3.635497 21.454555 0.003084 -0.000002 -175.463243 1.949408 -178.974971 -11.759854 2.764913 11.423133 78.847055 -7.031912 4.616834 21.454557 -0.003110 -0.000018 6.624080 -0.180618 0.098018 3.240669 -0.363887 0.188846 2.922567 -0.362611 0.182410 9.843510 -2.784357 -4.710933 -22.821329 5.064252 -7.365440 -40.251083 -87.739551 -141.692261 1.201187 7.650754 -7.863083 -21.867112 -16.278311 1.177655 6.593392 -0.266569 14.040505 -96.004073 83.446559 86.255686 -1.879118 -6.716510 5.544137 -19.931349 16.306703 -1.183629 6.703638 4.878771 -10.345345 
-61.612381 92.209396 314.197815 90.760394 4.456392 93.303526 -176.482772 -2.456292 -177.738816 -10.820651 -1.977589 -5.727497 74.687968 3.092486 -3.641421 21.454548 0.003076 0.000002 -175.451099 1.943413 -178.995352 -11.767683 2.778556 11.439460 78.855265 -7.046142 4.606971 21.454560 -0.003100 -0.000018 6.624083 -0.182554 0.098012 3.236092 -0.371131 0.190361 2.917992 -0.369835 0.182241 9.872554 -2.758339 -4.718513 -22.843137 5.054506 -7.367483 -40.004063 -87.738431 -141.939240 1.190432 7.642852 -7.860945 -21.880771 -16.292530 1.178889 6.596356 -0.215928 13.883367 -96.147186 83.458751 86.110729 -1.860737 -6.706644 5.548839 -19.943531 16.308309 -1.183639 6.714436 4.881000 -10.383193 
-61.623409 92.208313 314.206207 90.760196 4.467261 93.308252 -176.467923 -2.466598 -177.732369 -10.821358 -1.981880 -5.726402 74.689724 3.090752 -3.643352 21.454553 0.003092 0.000003 -175.438668 1.937704 -178.999177 -11.775121 2.786070 11.445803 78.861808 -7.052779 4.598917 21.454558 -0.003110 -0.000017 6.623516 -0.184325 0.098020 3.231583 -0.376693 0.189942 2.913466 -0.375391 0.182052 9.891507 -2.743483 -4.725960 -22.848228 5.052171 -7.373014 -39.849195 -87.739210 -142.093862 1.179562 7.630558 -7.858135 -21.904796 -16.303880 1.180207 6.596918 -0.186582 13.758239 -96.274098 83.469133 85.982294 -1.849637 -6.704201 5.561269 -19.964278 16.302772 -1.183628 6.748846 4.935405 -10.405381 
-61.631908 92.207130 314.213104 90.759984 4.478374 93.312289 -176.455711 -2.476305 -177.724500 -10.825974 -1.986829 -5.724947 74.693029 3.089147 -3.644193 21.454551 0.003089 -0.000000 -175.427357 1.931901 -178.995940 -11.783541 2.790390 11.448397 78.867518 -7.056190 4.592993 21.454557 -0.003112 -0.000017 6.622790 -0.185936 0.098020 3.229669 -0.378159 0.185205 2.911565 -0.376873 0.181884 9.903943 -2.767785 -4.729737 -22.843609 5.068636 -7.385654 -40.203163 -87.744059 -141.739894 1.166570 7.611452 -7.857480 -21.933751 -16.312389 1.181543 6.592816 -0.155491 13.634214 -96.278019 83.488920 85.976768 -1.842479 -6.711066 5.586914 -19.995420 16.297251 -1.183626 6.808816 5.010643 -10.438193 
